<svg width="200" height="70" viewBox="0 0 200 70" fill="none" xmlns="http://www.w3.org/2000/svg">
  <!-- Gradient Definitions -->
  <defs>
    <!-- Main gradient for signature -->
    <linearGradient id="signatureGradient" x1="0%" y1="0%" x2="100%" y2="0%">
      <stop offset="0%" style="stop-color:#60A5FA;stop-opacity:1" />
      <stop offset="40%" style="stop-color:#818CF8;stop-opacity:1" />
      <stop offset="70%" style="stop-color:#A78BFA;stop-opacity:1" />
      <stop offset="100%" style="stop-color:#C084FC;stop-opacity:1" />
    </linearGradient>
    
    <!-- Accent gradient -->
    <linearGradient id="accentGradient" x1="0%" y1="0%" x2="100%" y2="100%">
      <stop offset="0%" style="stop-color:#F472B6;stop-opacity:0.8" />
      <stop offset="100%" style="stop-color:#FB7185;stop-opacity:0.6" />
    </linearGradient>
    
    <!-- Glow effect -->
    <filter id="softGlow">
      <feGaussianBlur stdDeviation="1.5" result="coloredBlur"/>
      <feMerge>
        <feMergeNode in="coloredBlur"/>
        <feMergeNode in="SourceGraphic"/>
      </feMerge>
    </filter>
    
    <!-- Strong glow for accent -->
    <filter id="strongGlow">
      <feGaussianBlur stdDeviation="3" result="coloredBlur"/>
      <feMerge>
        <feMergeNode in="coloredBlur"/>
        <feMergeNode in="SourceGraphic"/>
      </feMerge>
    </filter>
  </defs>
  
  <g filter="url(#softGlow)">
    <!-- "Ali" in elegant handwritten style -->
    <!-- A -->
    <path d="M 20 45 Q 23 25, 32 23 Q 38 22, 42 26 Q 44 29, 45 35 L 48 48" 
          stroke="url(#signatureGradient)" 
          stroke-width="3" 
          fill="none" 
          stroke-linecap="round" 
          stroke-linejoin="round"/>
    <path d="M 32 32 L 42 45" 
          stroke="url(#signatureGradient)" 
          stroke-width="2.5" 
          fill="none" 
          stroke-linecap="round"/>
    
    <!-- l -->
    <path d="M 55 48 L 55 20 Q 55 18, 56 18" 
          stroke="url(#signatureGradient)" 
          stroke-width="3" 
          fill="none" 
          stroke-linecap="round"/>
    
    <!-- i with decorative dot -->
    <path d="M 65 48 L 65 30" 
          stroke="url(#signatureGradient)" 
          stroke-width="3" 
          fill="none" 
          stroke-linecap="round"/>
    <circle cx="65" cy="23" r="2.5" fill="url(#accentGradient)" filter="url(#strongGlow)"/>
    
    <!-- Decorative flourish -->
    <path d="M 75 35 Q 82 28, 90 30 Q 98 32, 105 35" 
          stroke="url(#accentGradient)" 
          stroke-width="2" 
          fill="none" 
          stroke-linecap="round" 
          stroke-dasharray="2,3"
          opacity="0.7"/>
    <circle cx="90" cy="30" r="2" fill="url(#accentGradient)" opacity="0.8"/>
    <path d="M 88 28 L 92 32 M 92 28 L 88 32" 
          stroke="url(#accentGradient)" 
          stroke-width="1.5" 
          stroke-linecap="round" 
          opacity="0.6"/>
    
    <!-- "Ahad" in flowing signature style -->
    <!-- A -->
    <path d="M 115 45 Q 118 25, 127 23 Q 133 22, 137 26 Q 139 29, 140 35 L 143 48" 
          stroke="url(#signatureGradient)" 
          stroke-width="3" 
          fill="none" 
          stroke-linecap="round" 
          stroke-linejoin="round"/>
    <path d="M 127 32 L 137 45" 
          stroke="url(#signatureGradient)" 
          stroke-width="2.5" 
          fill="none" 
          stroke-linecap="round"/>
    
    <!-- h -->
    <path d="M 150 48 L 150 20 M 150 33 Q 155 28, 160 30 Q 165 32, 165 38 L 165 48" 
          stroke="url(#signatureGradient)" 
          stroke-width="3" 
          fill="none" 
          stroke-linecap="round" 
          stroke-linejoin="round"/>
    
    <!-- a -->
    <path d="M 172 48 Q 175 50, 178 48 L 178 35 Q 178 30, 175 28 Q 172 26, 169 28 Q 166 30, 166 35 Q 166 40, 169 43 Q 172 46, 178 45" 
          stroke="url(#signatureGradient)" 
          stroke-width="3" 
          fill="none" 
          stroke-linecap="round" 
          stroke-linejoin="round"/>
    
    <!-- Elegant underline flourish -->
    <path d="M 20 54 Q 100 58, 178 54" 
          stroke="url(#signatureGradient)" 
          stroke-width="1.2" 
          fill="none" 
          stroke-linecap="round" 
          opacity="0.5"/>
    
    <!-- Decorative dots along underline -->
    <circle cx="60" cy="56" r="1" fill="url(#accentGradient)" opacity="0.6"/>
    <circle cx="140" cy="56" r="1" fill="url(#accentGradient)" opacity="0.6"/>
  </g>
</svg>
